<?xml version="1.0" encoding="iso-8859-1"?>
<!-- Uploaded to: SVG Repo, www.svgrepo.com, Generator: SVG Repo Mixer Tools -->
<!DOCTYPE svg PUBLIC "-//W3C//DTD SVG 1.1//EN" "http://www.w3.org/Graphics/SVG/1.1/DTD/svg11.dtd">
<svg fill="#000000" height="800px" width="800px" version="1.1" id="Capa_1" xmlns="http://www.w3.org/2000/svg" xmlns:xlink="http://www.w3.org/1999/xlink" 
	 viewBox="0 0 465 465" xml:space="preserve">
<g>
	<path d="M357.298,33.461c-2.169-11.567-10.042-20.702-21.603-25.062C322.374,3.375,280.903,0,232.5,0s-89.874,3.375-103.195,8.399
		c-11.561,4.359-19.434,13.494-21.603,25.063C105.365,45.938,101,117.13,101,232.5s4.365,186.563,6.702,199.039
		c2.168,11.567,10.042,20.702,21.603,25.063C142.628,461.625,184.099,465,232.5,465s89.872-3.375,103.195-8.398
		c11.561-4.36,19.435-13.495,21.603-25.063C359.635,419.063,364,347.87,364,232.5S359.635,45.938,357.298,33.461z M342.554,428.775
		c-1.197,6.39-5.513,11.287-12.151,13.791C320.846,446.17,283.284,450,232.5,450s-88.346-3.83-97.902-7.434
		c-6.639-2.504-10.954-7.401-12.151-13.79C120.198,416.777,116,346.887,116,232.5s4.198-184.277,6.446-196.275
		c1.197-6.39,5.513-11.286,12.151-13.79C144.154,18.83,181.714,15,232.5,15s88.346,3.83,97.902,7.435
		c6.639,2.504,10.954,7.4,12.151,13.789C344.802,48.223,349,118.113,349,232.5S344.802,416.777,342.554,428.775z"/>
	<path d="M186.74,334.836h-22.28c-4.143,0-7.5,3.357-7.5,7.5s3.357,7.5,7.5,7.5h22.28c4.143,0,7.5-3.357,7.5-7.5
		S190.883,334.836,186.74,334.836z"/>
	<path d="M299.288,334.836h-22.281c-4.143,0-7.5,3.357-7.5,7.5s3.357,7.5,7.5,7.5h22.281c4.143,0,7.5-3.357,7.5-7.5
		S303.431,334.836,299.288,334.836z"/>
	<path d="M186.74,369.164h-22.28c-4.143,0-7.5,3.357-7.5,7.5s3.357,7.5,7.5,7.5h22.28c4.143,0,7.5-3.357,7.5-7.5
		S190.883,369.164,186.74,369.164z"/>
	<path d="M299.288,369.164h-22.281c-4.143,0-7.5,3.357-7.5,7.5s3.357,7.5,7.5,7.5h22.281c4.143,0,7.5-3.357,7.5-7.5
		S303.431,369.164,299.288,369.164z"/>
	<path d="M186.74,403.493h-22.28c-4.143,0-7.5,3.357-7.5,7.5s3.357,7.5,7.5,7.5h22.28c4.143,0,7.5-3.357,7.5-7.5
		S190.883,403.493,186.74,403.493z"/>
	<path d="M243.015,344.836h-22.281c-4.143,0-7.5,3.357-7.5,7.5s3.357,7.5,7.5,7.5h22.281c4.143,0,7.5-3.357,7.5-7.5
		S247.157,344.836,243.015,344.836z"/>
	<path d="M243.015,379.164h-22.281c-4.143,0-7.5,3.357-7.5,7.5s3.357,7.5,7.5,7.5h22.281c4.143,0,7.5-3.357,7.5-7.5
		S247.157,379.164,243.015,379.164z"/>
	<path d="M243.015,413.493h-22.281c-4.143,0-7.5,3.357-7.5,7.5s3.357,7.5,7.5,7.5h22.281c4.143,0,7.5-3.357,7.5-7.5
		S247.157,413.493,243.015,413.493z"/>
	<path d="M299.288,403.493h-22.281c-4.143,0-7.5,3.357-7.5,7.5s3.357,7.5,7.5,7.5h22.281c4.143,0,7.5-3.357,7.5-7.5
		S303.431,403.493,299.288,403.493z"/>
	<path d="M276.374,296.198v-30.384c0-10.646-8.662-19.308-19.309-19.308h-50.383c-10.646,0-19.309,8.661-19.309,19.308v30.384
		c0,10.646,8.662,19.309,19.309,19.309h50.383C267.712,315.507,276.374,306.845,276.374,296.198z M261.374,296.198
		c0,2.376-1.933,4.309-4.309,4.309h-50.383c-2.376,0-4.309-1.933-4.309-4.309v-30.384c0-2.375,1.933-4.308,4.309-4.308h50.383
		c2.376,0,4.309,1.933,4.309,4.308V296.198z"/>
	<path d="M307.955,77.21h-150.91c-12.406,0-22.5,10.094-22.5,22.5v104.297c0,12.406,10.094,22.5,22.5,22.5h150.91
		c12.406,0,22.5-10.094,22.5-22.5V99.71C330.455,87.304,320.361,77.21,307.955,77.21z M315.455,204.007c0,4.136-3.364,7.5-7.5,7.5
		h-150.91c-4.136,0-7.5-3.364-7.5-7.5V99.71c0-4.136,3.364-7.5,7.5-7.5h150.91c4.136,0,7.5,3.364,7.5,7.5V204.007z"/>
	<path d="M217.833,51.507h29.334c4.143,0,7.5-3.357,7.5-7.5s-3.357-7.5-7.5-7.5h-29.334c-4.143,0-7.5,3.357-7.5,7.5
		S213.69,51.507,217.833,51.507z"/>
</g>
</svg>